<svg width="208" height="212" viewBox="0 0 208 212" fill="none" xmlns="http://www.w3.org/2000/svg">
<g clip-path="url(#clip0_0_1)">
<path d="M6.375 159.5C4.625 159.5 3.10833 158.917 1.825 157.75C0.658334 156.583 0.0750008 155.125 0.0750008 153.375V10.75C0.0750008 8.99999 0.658334 7.54166 1.825 6.37499C3.10833 5.20833 4.625 4.62499 6.375 4.62499H30.175C31.925 4.62499 33.325 5.14999 34.375 6.19999C35.425 7.24999 35.95 8.59166 35.95 10.225C35.95 11.7417 35.425 13.0833 34.375 14.25C33.325 15.3 31.925 15.825 30.175 15.825H14.25V148.3H30.175C31.925 148.3 33.325 148.825 34.375 149.875C35.425 151.042 35.95 152.383 35.95 153.9C35.95 155.417 35.425 156.7 34.375 157.75C33.325 158.917 31.925 159.5 30.175 159.5H6.375ZM177.502 159.5C175.752 159.5 174.352 158.917 173.302 157.75C172.252 156.7 171.727 155.417 171.727 153.9C171.727 152.383 172.252 151.042 173.302 149.875C174.352 148.825 175.752 148.3 177.502 148.3H193.427V15.825H177.502C175.752 15.825 174.352 15.3 173.302 14.25C172.252 13.0833 171.727 11.7417 171.727 10.225C171.727 8.59166 172.252 7.24999 173.302 6.19999C174.352 5.14999 175.752 4.62499 177.502 4.62499H201.477C203.227 4.62499 204.685 5.20833 205.852 6.37499C207.018 7.54166 207.602 8.99999 207.602 10.75V153.375C207.602 155.125 207.018 156.583 205.852 157.75C204.685 158.917 203.227 159.5 201.477 159.5H177.502Z" fill="#00B8FC"/>
<path d="M110.991 17.6373C91.2329 27.3781 80.6758 46.3486 87.4107 60.0091C94.1455 73.6696 115.622 76.8471 135.379 67.1063C155.137 57.3655 165.694 38.395 158.959 24.7345C152.224 11.074 130.748 7.89648 110.991 17.6373Z" fill="#F8F9FA"/>
<path d="M84.1534 195.442V160.244H83.1534V193.62L82.1534 190.744V159.839L81.1534 159.744V187.967L80.1534 184.744V159.244H79.1534V183.832L78.1534 181.744V158.827L77.1534 158.244V180.744L76.1534 178.744V157.744H75.1534V177.744L74.1534 176.244V157.079L73.1534 156.744V175.244L72.1534 173.744V155.744H71.1534V172.744L70.1534 171.744V154.744H69.1534V170.744L68.1534 169.244V153.744L67.1534 153.244V168.244L66.1534 167.244V152.744L65.1534 152.244V166.244L64.1534 164.744V151.244L63.1534 150.744V163.744L62.1534 162.744V150.244L61.1534 149.244V161.744L60.1534 160.244V148.244L59.1534 147.744V159.244L58.1534 158.244V147.244L57.1534 146.244V157.244L56.1534 155.744V145.244L55.1534 144.244V154.744L54.1534 153.744V142.744L53.1534 141.744V152.744L52.1534 150.744V140.744L51.1534 139.744V149.244L50.1534 147.744V138.244L49.1534 135.744V146.244L48.1534 144.244V132.744L47.1534 129.744V142.244L46.1534 139.744V124.744L45.1534 123.744V137.744L44.1534 134.744V122.744M44.1534 122.744H43.1534V132.121V110.744L44.1534 105.744V122.744ZM45.1534 123.089V100.744L46.1534 95.7437V107.178L47.1534 98.7437V92.7437L48.1534 94.7437V89.7437L49.1534 91.7437V87.7437" stroke="#F8F9FA"/>
<path d="M87.1535 211.725L88.1535 51.7249" stroke="#F8F9FA" stroke-width="6"/>
<path d="M54.6534 75.2437L52.6534 78.7437L50.1534 83.7437L47.6534 89.7437L45.6534 96.2437L44.6534 100.744L43.6534 105.744L42.6534 110.744L42.1534 115.744L41.6534 121.244V125.244L42.1534 129.244L42.6534 132.244L44.1534 136.744L46.6534 142.244L49.6534 147.744L52.1534 151.744L54.6534 154.744L58.6534 159.744L63.6534 165.244L67.6534 169.744L71.1534 173.744L74.6534 177.744L77.6534 182.244L80.1534 186.744L82.1534 192.244L83.6534 196.744L84.6534 200.244L85.1534 204.244L85.6534 207.744" stroke="#F8F9FA" stroke-width="2"/>
<path d="M54.6536 75.2438L53.1534 79.2437L51.6534 83.7437L50.1534 89.2437L49.1534 92.7437L48.1535 96.7437L47.1534 102.244L46.6534 107.244L46.1535 113.244V118.244V123.244L47.1535 127.744L48.1535 131.744L49.6534 135.744L51.6534 139.244L54.6536 142.744L58.6534 146.744L63.6534 150.244L69.1534 153.744L74.1534 156.244L79.1534 158.244L85.1534 159.744" stroke="#F8F9FA" stroke-width="2"/>
<path d="M55.1534 75.7437L55.6462 74.7581M55.6462 74.7581L55.6534 74.7437M55.6462 74.7581L56.1534 73.7437L55.6534 73.2437M55.6462 74.7581L54.6534 76.7437L52.6534 77.7437M55.6534 73.2437L52.6534 77.7437M55.6534 73.2437H55.1534M52.6534 77.7437L53.6534 75.7437L54.1534 74.7437M52.6534 77.7437L55.1534 73.2437M55.1534 73.2437L54.1534 74.7437M55.1534 73.2437L54.6534 73.7437L54.1534 74.7437" stroke="#F8F9FA"/>
</g>
<defs>
<clipPath id="clip0_0_1">
<rect width="208" height="212" fill="white"/>
</clipPath>
</defs>
</svg>
